<svg xmlns="http://www.w3.org/2000/svg" xmlns:xlink="http://www.w3.org/1999/xlink" width="1080" zoomAndPan="magnify" viewBox="0 0 810 809.999993" height="1080" preserveAspectRatio="xMidYMid meet" version="1.0"><defs><g/><clipPath id="d580826dcb"><path d="M 405 0 C 181.324219 0 0 181.324219 0 405 C 0 628.675781 181.324219 810 405 810 C 628.675781 810 810 628.675781 810 405 C 810 181.324219 628.675781 0 405 0 Z M 405 0 " clip-rule="nonzero"/></clipPath><clipPath id="d9ccea211c"><path d="M 0 0 L 810 0 L 810 810 L 0 810 Z M 0 0 " clip-rule="nonzero"/></clipPath><clipPath id="3aaa4b44fb"><path d="M 405 0 C 181.324219 0 0 181.324219 0 405 C 0 628.675781 181.324219 810 405 810 C 628.675781 810 810 628.675781 810 405 C 810 181.324219 628.675781 0 405 0 Z M 405 0 " clip-rule="nonzero"/></clipPath><clipPath id="5dc62c8858"><rect x="0" width="810" y="0" height="810"/></clipPath><clipPath id="af418e4dc1"><rect x="0" width="520" y="0" height="678"/></clipPath></defs><g clip-path="url(#d580826dcb)"><g transform="matrix(1, 0, 0, 1, 0, 0.000000000000039746)"><g clip-path="url(#5dc62c8858)"><g clip-path="url(#d9ccea211c)"><g clip-path="url(#3aaa4b44fb)"><rect x="-178.2" width="1166.4" fill="#000000" height="1166.39999" y="-178.199998" fill-opacity="1"/></g></g></g></g></g><g transform="matrix(1, 0, 0, 1, 145, 87)"><g clip-path="url(#af418e4dc1)"><g fill="#ff3131" fill-opacity="1"><g transform="translate(1.078185, 546.762864)"><g><path d="M 334.453125 0 L 334.453125 -162.25 L 183.390625 -162.25 L 183.390625 0 L 46 0 L 46 -427.703125 L 183.390625 -427.703125 L 183.390625 -271.65625 L 334.453125 -271.65625 L 334.453125 -427.703125 L 471.84375 -427.703125 L 471.84375 0 Z M 334.453125 0 "/></g></g></g></g></g></svg>